<?xml version="1.0" encoding="UTF-8"?>
<svg xmlns="http://www.w3.org/2000/svg" width="800" height="500" viewBox="0 0 800 500">
  <rect width="800" height="500" fill="#ffffff"/>
  <text x="400" y="35" text-anchor="middle" font-family="Roboto, Arial, sans-serif" font-size="16" font-weight="bold" fill="#111827">Confiança nas Respostas de IA</text>
  <g transform="translate(60, 60)">
    <line x1="0" y1="340" x2="710" y2="340" stroke="#e5e7eb" stroke-dasharray="2,2"/>
    <text x="-8" y="344" text-anchor="end" font-family="Roboto, Arial, sans-serif" font-size="10" fill="#6b7280">0</text>
    <line x1="0" y1="286.875" x2="710" y2="286.875" stroke="#e5e7eb" stroke-dasharray="2,2"/>
    <text x="-8" y="290.875" text-anchor="end" font-family="Roboto, Arial, sans-serif" font-size="10" fill="#6b7280">10</text>
    <line x1="0" y1="233.75" x2="710" y2="233.75" stroke="#e5e7eb" stroke-dasharray="2,2"/>
    <text x="-8" y="237.75" text-anchor="end" font-family="Roboto, Arial, sans-serif" font-size="10" fill="#6b7280">20</text>
    <line x1="0" y1="180.625" x2="710" y2="180.625" stroke="#e5e7eb" stroke-dasharray="2,2"/>
    <text x="-8" y="184.625" text-anchor="end" font-family="Roboto, Arial, sans-serif" font-size="10" fill="#6b7280">30</text>
    <line x1="0" y1="127.5" x2="710" y2="127.5" stroke="#e5e7eb" stroke-dasharray="2,2"/>
    <text x="-8" y="131.5" text-anchor="end" font-family="Roboto, Arial, sans-serif" font-size="10" fill="#6b7280">40</text>
    <line x1="0" y1="74.375" x2="710" y2="74.375" stroke="#e5e7eb" stroke-dasharray="2,2"/>
    <text x="-8" y="78.375" text-anchor="end" font-family="Roboto, Arial, sans-serif" font-size="10" fill="#6b7280">50</text>
    <line x1="0" y1="21.25" x2="710" y2="21.25" stroke="#e5e7eb" stroke-dasharray="2,2"/>
    <text x="-8" y="25.25" text-anchor="end" font-family="Roboto, Arial, sans-serif" font-size="10" fill="#6b7280">60</text>
    <rect x="61.25" y="276.25" width="55" height="63.75" fill="#0ea5e9" rx="2"/>
    <text x="88.75" y="270.25" text-anchor="middle" font-family="Roboto, Arial, sans-serif" font-size="11" font-weight="bold" fill="#374151">12%</text>
    <rect x="238.75" y="297.5" width="55" height="42.5" fill="#10b981" rx="2"/>
    <text x="266.25" y="291.5" text-anchor="middle" font-family="Roboto, Arial, sans-serif" font-size="11" font-weight="bold" fill="#374151">8%</text>
    <rect x="416.25" y="0" width="55" height="340" fill="#fbbf24" rx="2"/>
    <text x="443.75" y="-6" text-anchor="middle" font-family="Roboto, Arial, sans-serif" font-size="11" font-weight="bold" fill="#374151">65%</text>
    <rect x="593.75" y="260.3125" width="55" height="79.6875" fill="#8b5cf6" rx="2"/>
    <text x="621.25" y="254.3125" text-anchor="middle" font-family="Roboto, Arial, sans-serif" font-size="11" font-weight="bold" fill="#374151">15%</text>
    <line x1="0" y1="0" x2="0" y2="340" stroke="#000000" stroke-width="1"/>
    <text x="88.75" y="358" text-anchor="middle" font-family="Roboto, Arial, sans-serif" font-size="10" fill="#1f2937">Muito</text>
    <text x="266.25" y="358" text-anchor="middle" font-family="Roboto, Arial, sans-serif" font-size="10" fill="#1f2937">Não confio</text>
    <text x="443.75" y="358" text-anchor="middle" font-family="Roboto, Arial, sans-serif" font-size="10" fill="#1f2937">Parcialmente</text>
    <text x="621.25" y="358" text-anchor="middle" font-family="Roboto, Arial, sans-serif" font-size="10" fill="#1f2937">Pouco</text>
  </g>
</svg>