<?xml version="1.0" encoding="UTF-8"?>
<svg xmlns="http://www.w3.org/2000/svg" width="800" height="500" viewBox="0 0 800 500">
  <rect width="800" height="500" fill="#ffffff"/>
  <text x="400" y="35" text-anchor="middle" font-family="Roboto, Arial, sans-serif" font-size="16" font-weight="bold" fill="#111827">Leitura de Termos de Uso</text>
  <g transform="translate(60, 60)">
    <line x1="0" y1="340" x2="710" y2="340" stroke="#e5e7eb" stroke-dasharray="2,2"/>
    <text x="-8" y="344" text-anchor="end" font-family="Roboto, Arial, sans-serif" font-size="10" fill="#6b7280">0</text>
    <line x1="0" y1="272" x2="710" y2="272" stroke="#e5e7eb" stroke-dasharray="2,2"/>
    <text x="-8" y="276" text-anchor="end" font-family="Roboto, Arial, sans-serif" font-size="10" fill="#6b7280">10</text>
    <line x1="0" y1="204" x2="710" y2="204" stroke="#e5e7eb" stroke-dasharray="2,2"/>
    <text x="-8" y="208" text-anchor="end" font-family="Roboto, Arial, sans-serif" font-size="10" fill="#6b7280">20</text>
    <line x1="0" y1="136" x2="710" y2="136" stroke="#e5e7eb" stroke-dasharray="2,2"/>
    <text x="-8" y="140" text-anchor="end" font-family="Roboto, Arial, sans-serif" font-size="10" fill="#6b7280">30</text>
    <line x1="0" y1="67.99999999999999" x2="710" y2="67.99999999999999" stroke="#e5e7eb" stroke-dasharray="2,2"/>
    <text x="-8" y="71.99999999999999" text-anchor="end" font-family="Roboto, Arial, sans-serif" font-size="10" fill="#6b7280">40</text>
    <line x1="0" y1="0" x2="710" y2="0" stroke="#e5e7eb" stroke-dasharray="2,2"/>
    <text x="-8" y="4" text-anchor="end" font-family="Roboto, Arial, sans-serif" font-size="10" fill="#6b7280">50</text>
    <rect x="90.83333333333333" y="40.8" width="55" height="299.2" fill="#0ea5e9" rx="2"/>
    <text x="118.33333333333333" y="34.8" text-anchor="middle" font-family="Roboto, Arial, sans-serif" font-size="11" font-weight="bold" fill="#374151">44%</text>
    <rect x="327.5" y="0" width="55" height="340" fill="#10b981" rx="2"/>
    <text x="355" y="-6" text-anchor="middle" font-family="Roboto, Arial, sans-serif" font-size="11" font-weight="bold" fill="#374151">50%</text>
    <rect x="564.1666666666666" y="292.4" width="55" height="47.60000000000002" fill="#fbbf24" rx="2"/>
    <text x="591.6666666666666" y="286.4" text-anchor="middle" font-family="Roboto, Arial, sans-serif" font-size="11" font-weight="bold" fill="#374151">7%</text>
    <line x1="0" y1="0" x2="0" y2="340" stroke="#000000" stroke-width="1"/>
    <text x="118.33333333333333" y="358" text-anchor="middle" font-family="Roboto, Arial, sans-serif" font-size="10" fill="#1f2937">Às vezes</text>
    <text x="355" y="358" text-anchor="middle" font-family="Roboto, Arial, sans-serif" font-size="10" fill="#1f2937">Nunca</text>
    <text x="591.6666666666666" y="358" text-anchor="middle" font-family="Roboto, Arial, sans-serif" font-size="10" fill="#1f2937">Sempre</text>
  </g>
</svg>