<?xml version="1.0" encoding="UTF-8"?>
<svg xmlns="http://www.w3.org/2000/svg" width="800" height="500" viewBox="0 0 800 500">
  <rect width="800" height="500" fill="#ffffff"/>
  <text x="400" y="35" text-anchor="middle" font-family="Roboto, Arial, sans-serif" font-size="16" font-weight="bold" fill="#111827">Conhecimento sobre a LGPD</text>
  <g transform="translate(60, 60)">
    <line x1="0" y1="340" x2="710" y2="340" stroke="#e5e7eb" stroke-dasharray="2,2"/>
    <text x="-8" y="344" text-anchor="end" font-family="Roboto, Arial, sans-serif" font-size="10" fill="#6b7280">0</text>
    <line x1="0" y1="290" x2="710" y2="290" stroke="#e5e7eb" stroke-dasharray="2,2"/>
    <text x="-8" y="294" text-anchor="end" font-family="Roboto, Arial, sans-serif" font-size="10" fill="#6b7280">10</text>
    <line x1="0" y1="239.99999999999997" x2="710" y2="239.99999999999997" stroke="#e5e7eb" stroke-dasharray="2,2"/>
    <text x="-8" y="243.99999999999997" text-anchor="end" font-family="Roboto, Arial, sans-serif" font-size="10" fill="#6b7280">20</text>
    <line x1="0" y1="190" x2="710" y2="190" stroke="#e5e7eb" stroke-dasharray="2,2"/>
    <text x="-8" y="194" text-anchor="end" font-family="Roboto, Arial, sans-serif" font-size="10" fill="#6b7280">30</text>
    <line x1="0" y1="140" x2="710" y2="140" stroke="#e5e7eb" stroke-dasharray="2,2"/>
    <text x="-8" y="144" text-anchor="end" font-family="Roboto, Arial, sans-serif" font-size="10" fill="#6b7280">40</text>
    <line x1="0" y1="89.99999999999999" x2="710" y2="89.99999999999999" stroke="#e5e7eb" stroke-dasharray="2,2"/>
    <text x="-8" y="93.99999999999999" text-anchor="end" font-family="Roboto, Arial, sans-serif" font-size="10" fill="#6b7280">50</text>
    <line x1="0" y1="40.00000000000001" x2="710" y2="40.00000000000001" stroke="#e5e7eb" stroke-dasharray="2,2"/>
    <text x="-8" y="44.00000000000001" text-anchor="end" font-family="Roboto, Arial, sans-serif" font-size="10" fill="#6b7280">60</text>
    <rect x="150" y="180" width="55" height="160" fill="#0ea5e9" rx="2"/>
    <text x="177.5" y="174" text-anchor="middle" font-family="Roboto, Arial, sans-serif" font-size="11" font-weight="bold" fill="#374151">32%</text>
    <rect x="505" y="0" width="55" height="340" fill="#10b981" rx="2"/>
    <text x="532.5" y="-6" text-anchor="middle" font-family="Roboto, Arial, sans-serif" font-size="11" font-weight="bold" fill="#374151">68%</text>
    <line x1="0" y1="0" x2="0" y2="340" stroke="#000000" stroke-width="1"/>
    <text x="177.5" y="358" text-anchor="middle" font-family="Roboto, Arial, sans-serif" font-size="10" fill="#1f2937">Não</text>
    <text x="532.5" y="358" text-anchor="middle" font-family="Roboto, Arial, sans-serif" font-size="10" fill="#1f2937">Sim</text>
  </g>
</svg>