<?xml version="1.0" encoding="UTF-8"?>
<svg id="Layer_1" data-name="Layer 1" xmlns="http://www.w3.org/2000/svg" xmlns:xlink="http://www.w3.org/1999/xlink" viewBox="0 0 1306.5 232.5">
  <defs>
    <style>
      .cls-1 {
        fill: url(#Gradiente_sem_nome_217);
      }

      .cls-1, .cls-2, .cls-3 {
        stroke-width: 0px;
      }

      .cls-2 {
        fill: #b6c5d8;
      }

      .cls-3 {
        fill: url(#Gradiente_sem_nome_215);
      }
    </style>
    <linearGradient id="Gradiente_sem_nome_217" data-name="Gradiente sem nome 217" x1="101.81" y1="220.19" x2="101.81" y2="4.37" gradientUnits="userSpaceOnUse">
      <stop offset="0" stop-color="#0ea5e9"/>
      <stop offset=".46" stop-color="#10a4e6"/>
      <stop offset=".75" stop-color="#19a1dd"/>
      <stop offset=".98" stop-color="#279ccf"/>
      <stop offset="1" stop-color="#299cce"/>
    </linearGradient>
    <linearGradient id="Gradiente_sem_nome_215" data-name="Gradiente sem nome 215" x1="776.8" y1="136.18" x2="776.8" y2="4.47" gradientUnits="userSpaceOnUse">
      <stop offset="0" stop-color="#0ea5e9"/>
      <stop offset=".46" stop-color="#10a4e6"/>
      <stop offset=".75" stop-color="#19a1dd"/>
      <stop offset=".98" stop-color="#279ccf"/>
      <stop offset="1" stop-color="#299cce"/>
    </linearGradient>
  </defs>
  <polygon class="cls-1" points=".09 4.37 .09 157.29 63.77 196.07 63.77 70.39 140.48 70.39 140.48 116.94 101.76 142.66 75.55 126.45 75.55 157.62 101.87 173.38 165.86 130.78 165.86 44.51 37.4 44.51 37.4 149.72 26.1 142.67 26.1 31.24 177.64 31.24 177.64 142.17 101.78 189.33 76.05 174.12 76.05 204.18 101.8 220.19 203.52 157.28 203.52 4.37 .09 4.37"/>
  <g>
    <path class="cls-3" d="M376.01,4.48v48.92l-46.09,35.75h-37.63v47.03h-46.09V4.48h129.82ZM329.92,40.23h-37.63v13.17h37.63v-13.17ZM522.46,50.58l-23.71,19.75h23.71v65.86h-46.09v-47.04h-37.63v47.04h-46.1V4.48h129.82v46.1ZM476.37,40.22h-37.63v13.17h37.63v-13.17ZM674.26,4.48v95.95l-46.09,35.75h-89.08V40.23l46.09-35.75h89.08ZM628.16,40.23h-42.99v60.21h42.99v-60.21ZM816.19,4.48v35.75h-39.7v95.95h-46.09V40.22h-39.7V4.48h125.49ZM878.9,40.22v13.17h73.01v33.87h-73.01v13.16h73.01v35.76h-119.11V4.48h119.11v35.75h-73.01ZM1014.55,40.22v60.2h37.63v-13.39h-23.28v-33.65h69.37v47.03l-46.09,35.76h-83.73V4.48h129.82v35.75h-83.72ZM1114.9,136.18V4.48h46.09v131.71h-46.09ZM1307.41,53.39l-21.82,16.93,21.82,16.94v48.92h-46.09v-47.04h-37.69v47.04h-46.09v-48.92l21.82-16.94-21.82-16.93V4.47h46.09v48.92h37.69V4.47h46.09v48.92Z"/>
    <g id="Logotype">
      <g>
        <path class="cls-2" d="M284.19,189.07h-31.25v7.81h31.25v23.43h-39.06v-7.81h31.25v-7.81h-31.25v-23.43h39.06v7.81Z"/>
        <path class="cls-2" d="M323.03,196.88h23.43v7.81h-23.43v7.81h31.25v7.81h-39.06v-39.06h39.06v7.81h-31.25v7.81Z"/>
        <path class="cls-2" d="M424.36,220.32h-39.06v-39.06h39.06v7.81h-31.25v23.43h23.43v-7.81h-7.81v-7.81h15.62v23.43Z"/>
        <path class="cls-2" d="M463.21,181.26v31.25h23.43v-31.25h7.81v39.06h-39.06v-39.06h7.81Z"/>
        <path class="cls-2" d="M541.11,204.69h-7.81v15.62h-7.81v-39.06h39.06v23.43h-13.79l13.79,15.62h-9.64l-13.79-15.62ZM533.3,189.07v7.81h23.43v-7.81h-23.43Z"/>
        <path class="cls-2" d="M615.1,220.32v-7.81h7.57l-7.57-19.53-10.62,27.34h-8.91l15.62-39.06h7.81l15.62,39.06h-19.53Z"/>
        <path class="cls-2" d="M665.66,220.32v-39.06h7.81l23.43,27.71v-27.71h7.81v39.06h-7.81l-23.43-26.85v26.85h-7.81Z"/>
        <path class="cls-2" d="M751.37,220.32h-15.62v-39.06h39.06v7.81h-31.25v23.43h31.25v7.81h-15.62v7.81h-7.81v-7.81Z"/>
        <path class="cls-2" d="M825.37,220.32v-7.81h7.57l-7.57-19.53-10.62,27.34h-8.91l15.62-39.06h7.81l15.62,39.06h-19.53Z"/>
        <path class="cls-2" d="M910.19,220.32v-39.06h31.25l7.81,7.81v23.43l-7.81,7.81h-31.25ZM918.01,212.5h19.53l3.91-3.91v-15.26l-3.91-4.27h-19.53v23.43Z"/>
        <path class="cls-2" d="M988.09,181.26v39.06h-7.81v-39.06h7.81Z"/>
        <path class="cls-2" d="M1058.18,220.32h-39.06v-39.06h39.06v7.81h-31.25v23.43h23.43v-7.81h-7.81v-7.81h15.62v23.43Z"/>
        <path class="cls-2" d="M1097.03,181.26v39.06h-7.81v-39.06h7.81Z"/>
        <path class="cls-2" d="M1128.06,181.26h39.06v7.81h-15.62v31.25h-7.81v-31.25h-15.62v-7.81Z"/>
        <path class="cls-2" d="M1217.67,220.32v-7.81h7.57l-7.57-19.53-10.62,27.34h-8.91l15.62-39.06h7.81l15.62,39.06h-19.53Z"/>
        <path class="cls-2" d="M1307.29,220.32h-39.06v-39.06h7.81v31.25h23.43v-7.81h7.81v15.62Z"/>
      </g>
    </g>
  </g>
</svg>