<?xml version="1.0" encoding="UTF-8"?>
<svg id="Layer_1" data-name="Layer 1" xmlns="http://www.w3.org/2000/svg" xmlns:xlink="http://www.w3.org/1999/xlink" viewBox="0 0 297 321">
  <defs>
    <style>
      .cls-1 {
        fill: #b6c5d8;
      }

      .cls-1, .cls-2, .cls-3 {
        stroke-width: 0px;
      }

      .cls-2 {
        fill: url(#Gradiente_sem_nome_211);
      }

      .cls-3 {
        fill: url(#Gradiente_sem_nome_224);
      }
    </style>
    <linearGradient id="Gradiente_sem_nome_224" data-name="Gradiente sem nome 224" x1="148.5" y1="293.22" x2="148.5" y2="257.01" gradientUnits="userSpaceOnUse">
      <stop offset="0" stop-color="#0ea5e9"/>
      <stop offset=".46" stop-color="#10a4e6"/>
      <stop offset=".75" stop-color="#19a1dd"/>
      <stop offset=".98" stop-color="#279ccf"/>
      <stop offset="1" stop-color="#299cce"/>
    </linearGradient>
    <linearGradient id="Gradiente_sem_nome_211" data-name="Gradiente sem nome 211" x1="148.5" y1="226.45" x2="148.5" y2="2.71" gradientUnits="userSpaceOnUse">
      <stop offset="0" stop-color="#0ea5e9"/>
      <stop offset=".46" stop-color="#10a4e6"/>
      <stop offset=".75" stop-color="#19a1dd"/>
      <stop offset=".98" stop-color="#279ccf"/>
      <stop offset="1" stop-color="#299cce"/>
    </linearGradient>
  </defs>
  <path class="cls-3" d="M38.32,257.01v13.45l-12.67,9.83h-10.34v12.93H2.63v-36.21h35.69ZM25.65,266.84h-10.34v3.62h10.34v-3.62ZM78.58,269.69l-6.52,5.43h6.52v18.11h-12.67v-12.93h-10.34v12.93h-12.67v-36.21h35.69v12.67ZM65.91,266.84h-10.34v3.62h10.34v-3.62ZM120.31,257.01v26.38l-12.67,9.83h-24.49v-26.38l12.67-9.83h24.49ZM107.64,266.84h-11.82v16.55h11.82v-16.55ZM159.33,257.01v9.83h-10.91v26.38h-12.67v-26.38h-10.91v-9.83h34.5ZM176.57,266.84v3.62h20.07v9.31h-20.07v3.62h20.07v9.83h-32.75v-36.21h32.75v9.83h-20.07ZM213.86,266.84v16.55h10.35v-3.68h-6.4v-9.25h19.07v12.93l-12.67,9.83h-23.02v-36.21h35.69v9.83h-23.02ZM241.45,293.22v-36.21h12.67v36.21h-12.67ZM294.37,270.46l-6,4.65,6,4.66v13.45h-12.67v-12.93h-10.36v12.93h-12.67v-13.45l6-4.66-6-4.65v-13.45h12.67v13.45h10.36v-13.45h12.67v13.45Z"/>
  <polygon class="cls-2" points="43.04 2.71 43.04 161.24 109.06 201.45 109.06 71.15 188.59 71.15 188.59 119.41 148.45 146.08 121.28 129.27 121.28 161.58 148.57 177.93 214.91 133.76 214.91 44.32 81.72 44.32 81.72 153.4 70.02 146.08 70.02 30.56 227.13 30.56 227.13 145.57 148.47 194.46 121.8 178.7 121.8 209.85 148.5 226.45 253.96 161.23 253.96 2.71 43.04 2.71"/>
  <g id="Logotype">
    <g>
      <path class="cls-1" d="M13.24,307.56H4.65v2.15h8.59v6.44H2.5v-2.15h8.59v-2.15H2.5v-6.44h10.74v2.15Z"/>
      <path class="cls-1" d="M23.92,309.7h6.44v2.15h-6.44v2.15h8.59v2.15h-10.74v-10.74h10.74v2.15h-8.59v2.15Z"/>
      <path class="cls-1" d="M51.77,316.15h-10.74v-10.74h10.74v2.15h-8.59v6.44h6.44v-2.15h-2.15v-2.15h4.29v6.44Z"/>
      <path class="cls-1" d="M62.45,305.41v8.59h6.44v-8.59h2.15v10.74h-10.74v-10.74h2.15Z"/>
      <path class="cls-1" d="M83.87,311.85h-2.15v4.29h-2.15v-10.74h10.74v6.44h-3.79l3.79,4.29h-2.65l-3.79-4.29ZM81.72,307.56v2.15h6.44v-2.15h-6.44Z"/>
      <path class="cls-1" d="M104.21,316.15v-2.15h2.08l-2.08-5.37-2.92,7.52h-2.45l4.29-10.74h2.15l4.29,10.74h-5.37Z"/>
      <path class="cls-1" d="M118.11,316.15v-10.74h2.15l6.44,7.62v-7.62h2.15v10.74h-2.15l-6.44-7.38v7.38h-2.15Z"/>
      <path class="cls-1" d="M141.67,316.15h-4.29v-10.74h10.74v2.15h-8.59v6.44h8.59v2.15h-4.29v2.15h-2.15v-2.15Z"/>
      <path class="cls-1" d="M162.01,316.15v-2.15h2.08l-2.08-5.37-2.92,7.52h-2.45l4.29-10.74h2.15l4.29,10.74h-5.37Z"/>
      <path class="cls-1" d="M185.33,316.15v-10.74h8.59l2.15,2.15v6.44l-2.15,2.15h-8.59ZM187.48,314h5.37l1.07-1.07v-4.19l-1.07-1.17h-5.37v6.44Z"/>
      <path class="cls-1" d="M206.75,305.41v10.74h-2.15v-10.74h2.15Z"/>
      <path class="cls-1" d="M226.02,316.15h-10.74v-10.74h10.74v2.15h-8.59v6.44h6.44v-2.15h-2.15v-2.15h4.29v6.44Z"/>
      <path class="cls-1" d="M236.7,305.41v10.74h-2.15v-10.74h2.15Z"/>
      <path class="cls-1" d="M245.23,305.41h10.74v2.15h-4.29v8.59h-2.15v-8.59h-4.29v-2.15Z"/>
      <path class="cls-1" d="M269.86,316.15v-2.15h2.08l-2.08-5.37-2.92,7.52h-2.45l4.29-10.74h2.15l4.29,10.74h-5.37Z"/>
      <path class="cls-1" d="M294.5,316.15h-10.74v-10.74h2.15v8.59h6.44v-2.15h2.15v4.29Z"/>
    </g>
  </g>
</svg>